<?xml version="1.0" encoding="UTF-8"?>
<svg width="24" height="24" viewBox="0 0 24 24" fill="none" xmlns="http://www.w3.org/2000/svg">
  <path d="M12 22C14.6522 22 17.1957 20.9464 19.0711 19.0711C20.9464 17.1957 22 14.6522 22 12C22 9.34784 20.9464 6.8043 19.0711 4.92893C17.1957 3.05357 14.6522 2 12 2C9.34784 2 6.8043 3.05357 4.92893 4.92893C3.05357 6.8043 2 9.34784 2 12C2 14.6522 3.05357 17.1957 4.92893 19.0711C6.8043 20.9464 9.34784 22 12 22Z" stroke="currentColor" stroke-width="2"/>
  <path d="M12 6C10.8 7.2 8 9.6 8 12C8 14.4 9.6 16 12 16C14.4 16 16 14.4 16 12C16 9.6 13.2 7.2 12 6Z" fill="currentColor"/>
</svg>
