<?xml version="1.0" encoding="UTF-8"?>
<svg width="24" height="24" viewBox="0 0 24 24" fill="none" xmlns="http://www.w3.org/2000/svg">
  <path d="M21 4H3C2.46957 4 1.96086 4.21071 1.58579 4.58579C1.21071 4.96086 1 5.46957 1 6V18C1 18.5304 1.21071 19.0391 1.58579 19.4142C1.96086 19.7893 2.46957 20 3 20H21C21.5304 20 22.0391 19.7893 22.4142 19.4142C22.7893 19.0391 23 18.5304 23 18V6C23 5.46957 22.7893 4.96086 22.4142 4.58579C22.0391 4.21071 21.5304 4 21 4Z" stroke="currentColor" stroke-width="2"/>
  <path d="M12 5V19M3 12H21" stroke="currentColor" stroke-width="2"/>
</svg>
